PathFileType	4	(X/Y/Z)	C:/Users/opensim2020/Desktop/walking_exp_matlab/subject03_walking14_straight_04.trc																																																																																																																																											
DataRate	CameraRate	NumFrames	NumMarkers	Units	OrigDataRate	OrigDataStartFrame	OrigNumFrames																																																																																																																																							
100	100	4	47	mm	100	2288	177																																																																																																																																							
Frame#	Time	LFHD			RFHD			LBHD			RBHD			C7			T10			CLAV			STRN			RBAK			LSHO			LUPA			LELB			LFRM			LWRA			LWRB			LFIN			RSHO			RUPA			RELB			RFRM			RWRA			RWRB			RFIN			LASI			RASI			LPSI			RPSI			LTHI			LKNE			LTIB			LANK			LHEE			LTOE			RTHI			RKNE			RTIB			RANK			RHEE			RTOE			*39			*40			*41			*42			*43			*44			*45			*46		
		X1	Y1	Z1	X2	Y2	Z2	X3	Y3	Z3	X4	Y4	Z4	X5	Y5	Z5	X6	Y6	Z6	X7	Y7	Z7	X8	Y8	Z8	X9	Y9	Z9	X10	Y10	Z10	X11	Y11	Z11	X12	Y12	Z12	X13	Y13	Z13	X14	Y14	Z14	X15	Y15	Z15	X16	Y16	Z16	X17	Y17	Z17	X18	Y18	Z18	X19	Y19	Z19	X20	Y20	Z20	X21	Y21	Z21	X22	Y22	Z22	X23	Y23	Z23	X24	Y24	Z24	X25	Y25	Z25	X26	Y26	Z26	X27	Y27	Z27	X28	Y28	Z28	X29	Y29	Z29	X30	Y30	Z30	X31	Y31	Z31	X32	Y32	Z32	X33	Y33	Z33	X34	Y34	Z34	X35	Y35	Z35	X36	Y36	Z36	X37	Y37	Z37	X38	Y38	Z38	X39	Y39	Z39	X40	Y40	Z40	X41	Y41	Z41	X42	Y42	Z42	X43	Y43	Z43	X44	Y44	Z44	X45	Y45	Z45	X46	Y46	Z46	X47	Y47	Z47
																																																																																																																																														
111	1.1	406.24582	1603.30603	938.43427	396.84558	1609.69128	1070.729	278.36176	1559.75049	935.12183	274.08279	1565.35352	1065.69653	245.30717	1397.87256	996.90112	221.61798	1083.08374	994.79877	369.47256	1324.72791	998.57068	418.59738	1162.48804	984.05017	197.48357	1215.68579	1083.85767	322.87283	1366.48596	844.62115	343.93533	1179.22473	763.85315	382.28439	1066.06616	750.84534	479.44186	990.41595	770.77747	567.82764	928.09277	824.0976	556.08325	906.47485	774.06335	629.31799	876.93402	794.82043	314.72098	1344.94373	1157.61169	285.25113	1123.86462	1226.74854	282.52005	1010.8418	1241.59497	267.98901	874.46399	1248.66748	278.03238	771.42981	1220.47339	241.78036	777.50275	1261.55762	239.34782	700.6427	1251.59326	376.79391	916.82642	864.59595	404.63556	932.97668	1101.22107	221.72806	938.63617	933.38647	239.3441	954.33136	1079.25415	301.58585	614.41473	812.79706	297.25583	433.86224	825.19446	134.97531	320.41479	833.46808	-26.20375	196.00502	882.77258	-65.20367	221.97365	924.8028	-6.24753	49.44525	913.98633	412.2551	642.23444	1152.85767	475.25403	476.5766	1105.27734	449.55698	282.35263	1112.40161	427.85098	68.36189	1064.36316	379.70584	37.06451	1016.31921	567.91931	32.02229	1040.698	NaN	NaN	NaN	NaN	NaN	NaN	NaN	NaN	NaN	NaN	NaN	NaN	NaN	NaN	NaN	NaN	NaN	NaN	NaN	NaN	NaN	NaN	NaN	NaN
112	1.11	419.11047	1605.07776	939.0434	409.8476	1611.40161	1071.32104	291.34451	1561.70361	935.90558	286.9848	1567.32874	1066.39734	257.99921	1399.84863	998.36169	234.38791	1084.81555	995.72205	382.1322	1326.698	998.85852	431.15604	1164.35779	983.93878	210.73915	1217.60876	1085.66394	334.68399	1368.29919	845.25537	355.05237	1180.69519	764.96808	392.3215	1066.7677	752.10071	488.33725	989.09705	771.72772	575.58588	924.51807	824.51147	563.31732	903.51935	774.33588	635.69006	871.57129	795.30743	328.47104	1346.93335	1158.37366	300.97675	1125.52783	1227.98376	299.57727	1012.61743	1242.85303	287.73309	875.88422	1249.61255	299.96222	773.30414	1220.85608	263.7435	778.34308	1262.10999	263.06442	701.63702	1252.10632	388.81329	918.2132	864.77942	417.37451	934.4624	1101.76917	234.10243	939.8006	934.48242	252.01204	956.55023	1080.35205	319.42963	615.51563	813.30121	322.68951	434.63303	824.86115	160.12277	322.57788	834.34607	-2.80217	201.2606	884.29724	-42.57022	225.23235	927.48834	20.0779	53.89573	909.56543	419.6532	642.15472	1153.49829	480.08087	475.65472	1106.4707	451.76025	282.06262	1113.16296	427.71588	68.44289	1064.5188	379.67545	37.25657	1016.35675	567.875	31.94258	1040.82874	NaN	NaN	NaN	NaN	NaN	NaN	NaN	NaN	NaN	NaN	NaN	NaN	NaN	NaN	NaN	NaN	NaN	NaN	NaN	NaN	NaN	NaN	NaN	NaN
113	1.12	431.80869	1606.91321	939.56458	422.67401	1613.20618	1071.84106	304.07758	1563.76453	936.4494	299.78369	1569.35803	1067.01013	270.58649	1401.953	999.3183	246.88072	1086.63525	996.72229	394.60165	1328.77722	999.08502	443.58231	1166.29517	983.76062	223.78178	1219.45984	1087.38232	346.26779	1370.18774	845.72913	365.76169	1182.13025	765.95233	402.48773	1067.60217	753.35358	497.06726	987.58997	772.53149	583.02386	920.54529	824.74176	570.14929	900.2699	774.3324	641.52679	865.57605	795.53723	342.10355	1348.79846	1158.90613	316.82111	1127.3573	1229.02014	316.71176	1014.35992	1244.06311	307.81262	877.52838	1250.53931	322.32828	775.47473	1221.49023	285.94061	779.37122	1262.78271	287.4035	702.72845	1252.69043	400.52966	919.76697	864.91577	429.87689	935.81653	1102.25952	246.44894	941.23834	935.57062	264.49628	958.79504	1081.47827	337.82806	617.13953	814.07794	347.73642	436.46484	824.88763	185.05594	325.36978	835.46497	21.28174	205.4147	886.39594	-19.15749	226.41019	930.09058	49.00242	57.33912	905.68573	427.20288	642.55267	1154.54736	484.51791	474.98547	1107.43018	453.3584	281.93207	1113.70605	427.58548	68.52044	1064.55237	379.61151	37.47329	1016.33795	567.84424	31.89298	1040.90527	NaN	NaN	NaN	NaN	NaN	NaN	NaN	NaN	NaN	NaN	NaN	NaN	NaN	NaN	NaN	NaN	NaN	NaN	NaN	NaN	NaN	NaN	NaN	NaN
114	1.13	444.4288	1608.83887	940.02155	435.44623	1615.02625	1072.32397	316.68475	1565.89697	936.98352	312.44284	1571.41016	1067.56567	283.07867	1403.77466	1000.29993	259.2807	1088.46606	997.53497	406.90186	1330.81848	999.21155	455.73199	1168.26587	983.57257	236.68727	1221.32043	1088.86035	357.70428	1372.16492	846.01788	376.20929	1183.56213	766.81354	412.62665	1068.43213	754.62164	505.63635	985.99939	773.17889	590.07135	916.19653	824.68518	576.58636	896.79022	774.06708	646.74933	859.05475	795.57947	355.75146	1350.53003	1159.35034	332.78769	1129.14075	1229.93164	334.10141	1016.14325	1245.11194	328.21927	879.1344	1251.33862	344.57098	777.47583	1221.95593	308.7439	780.58081	1263.44763	312.289	704.02979	1253.20886	412.43317	921.67535	865.34247	442.11331	937.06561	1102.82507	258.6962	942.96777	936.66327	276.67044	960.95886	1082.59094	356.84909	619.05432	814.95416	372.5564	439.00699	825.12585	210.24921	328.1163	836.47345	47.06607	207.388	887.88959	5.23535	225.68327	931.92712	80.02706	59.58319	903.14667	434.48929	643.297	1154.99072	488.54788	474.55276	1108.19189	454.7001	281.88702	1113.99158	427.50763	68.65305	1064.56274	379.60056	37.72723	1016.26965	567.79858	31.82657	1040.95691	NaN	NaN	NaN	360.39539	1668.59839	984.67438	NaN	NaN	NaN	NaN	NaN	NaN	NaN	NaN	NaN	NaN	NaN	NaN	NaN	NaN	NaN	NaN	NaN	NaN
